<svg id="Layer_1" data-name="Layer 1" xmlns="http://www.w3.org/2000/svg" viewBox="0 0 32 32"><defs><style>.cls-1{fill:#B3B6F0;}.cls-2{fill:#090E29;}</style></defs><circle class="cls-1" cx="16" cy="16" r="15.87"/><path class="cls-1" d="M16,.25A15.75,15.75,0,1,1,.25,16,15.77,15.77,0,0,1,16,.25M16,0A16,16,0,1,0,32,16,16,16,0,0,0,16,0Z"/><ellipse class="cls-2" cx="16" cy="14" rx="8.88" ry="6.88"/><path class="cls-2" d="M16,7.25c4.82,0,8.75,3,8.75,6.75S20.82,20.75,16,20.75s-8.75-3-8.75-6.75S11.18,7.25,16,7.25M16,7c-5,0-9,3.13-9,7s4,7,9,7,9-3.13,9-7-4-7-9-7Z"/><polygon class="cls-2" points="8.1 6.62 12.05 8.41 8.1 10.96 8.1 6.62"/><path class="cls-2" d="M8.22,6.81l3.57,1.62-3.57,2.3V6.81M8,6.43v4.76l4.34-2.8L8,6.43Z"/><polygon class="cls-2" points="19.93 8.02 23.88 6.23 23.88 10.57 19.93 8.02"/><path class="cls-2" d="M23.75,6.42v3.92L20.18,8l3.57-1.62M24,6,19.66,8,24,10.8V6Z"/><path class="cls-2" d="M13.25,18.13h5.5a2.12,2.12,0,0,1,2.12,2.12v3.5a2.13,2.13,0,0,1-2.12,2.13h-5.5a2.13,2.13,0,0,1-2.12-2.12v-3.5A2.13,2.13,0,0,1,13.25,18.13Z"/><path class="cls-2" d="M18.75,18.25a2,2,0,0,1,2,2v3.5a2,2,0,0,1-2,2h-5.5a2,2,0,0,1-2-2v-3.5a2,2,0,0,1,2-2h5.5m0-.25h-5.5A2.25,2.25,0,0,0,11,20.25v3.5A2.25,2.25,0,0,0,13.25,26h5.5A2.25,2.25,0,0,0,21,23.75v-3.5A2.25,2.25,0,0,0,18.75,18Z"/><path class="cls-2" d="M11.08,23.32a.33.33,0,0,1-.19-.06l-5.8-3.34A.39.39,0,0,1,5,19.38l.15-.27a.39.39,0,0,1,.34-.19.35.35,0,0,1,.2,0l5.8,3.34a.4.4,0,0,1,.14.54l-.16.27A.4.4,0,0,1,11.08,23.32Z"/><path class="cls-2" d="M5.44,19h0a.23.23,0,0,1,.14,0l5.79,3.34a.28.28,0,0,1,.1.37l-.15.27a.28.28,0,0,1-.24.13.31.31,0,0,1-.13,0l-5.8-3.35a.27.27,0,0,1-.09-.37l.15-.26A.27.27,0,0,1,5.44,19m0-.25a.53.53,0,0,0-.45.26l-.15.27A.52.52,0,0,0,5,20l5.79,3.34a.52.52,0,0,0,.71-.19l.16-.27a.51.51,0,0,0-.19-.7L5.7,18.86a.48.48,0,0,0-.26-.07Z"/></svg>