<svg id="Layer_1" data-name="Layer 1" xmlns="http://www.w3.org/2000/svg" viewBox="0 0 32 32"><defs><style>.cls-1{fill:#B3B6F0;}.cls-2{fill:#090E29;}.cls-3{fill:#B3B6F0;}</style></defs><circle class="cls-1" cx="16" cy="16" r="15.87"/><path class="cls-1" d="M16,.25A15.75,15.75,0,1,1,.25,16,15.77,15.77,0,0,1,16,.25M16,0A16,16,0,1,0,32,16,16,16,0,0,0,16,0Z"/><rect class="cls-2" x="5.63" y="8.63" width="20.75" height="14.75" rx="2.41"/><path class="cls-2" d="M24,8.75A2.28,2.28,0,0,1,26.25,11V21A2.28,2.28,0,0,1,24,23.25H8A2.28,2.28,0,0,1,5.75,21V11A2.28,2.28,0,0,1,8,8.75H24m0-.25H8A2.53,2.53,0,0,0,5.5,11V21A2.53,2.53,0,0,0,8,23.5H24A2.53,2.53,0,0,0,26.5,21V11A2.53,2.53,0,0,0,24,8.5Z"/><path class="cls-3" d="M13.22,19.27a.61.61,0,0,1-.61-.61V13.34a.61.61,0,0,1,.62-.61.58.58,0,0,1,.26.06L19,15.45a.61.61,0,0,1,0,1.1l-5.55,2.66a.6.6,0,0,1-.27.06Z"/><path class="cls-3" d="M13.23,12.85a.54.54,0,0,1,.21.05L19,15.56a.49.49,0,0,1,0,.88L13.44,19.1a.54.54,0,0,1-.21,0,.49.49,0,0,1-.49-.49V13.34a.49.49,0,0,1,.49-.49m0-.25a.74.74,0,0,0-.74.74v5.32a.74.74,0,0,0,.74.74.7.7,0,0,0,.31-.07l5.55-2.66a.74.74,0,0,0,0-1.34l-5.55-2.66a.7.7,0,0,0-.31-.07Z"/></svg>